HIERARCHY
ROOT Hips
{
	OFFSET 0.000000 0.000000 0.000000 
	CHANNELS 6 Xposition Yposition Zposition Zrotation Yrotation Xrotation
	JOINT LeftUpLeg
	{
		OFFSET 1.363060 -1.794630 0.839290 
		CHANNELS 3 Zrotation Yrotation Xrotation
		JOINT LeftLeg
		{
			OFFSET 2.448110 -6.726130 0.000000 
			CHANNELS 3 Zrotation Yrotation Xrotation
			JOINT LeftFoot
			{
				OFFSET 2.562200 -7.039590 0.000000 
				CHANNELS 3 Zrotation Yrotation Xrotation
				JOINT LeftToeBase
				{
					OFFSET 0.157640 -0.433110 2.322550 
					CHANNELS 3 Zrotation Yrotation Xrotation
					End Site
					{
						OFFSET 0.000000 0.000000 0.000000 
					}
				}
			}
		}
	}
	JOINT RightUpLeg
	{
		OFFSET -1.305520 -1.794630 0.839290 
		CHANNELS 3 Zrotation Yrotation Xrotation
		JOINT RightLeg
		{
			OFFSET -2.542530 -6.985550 0.000000 
			CHANNELS 3 Zrotation Yrotation Xrotation
			JOINT RightFoot
			{
				OFFSET -2.568260 -7.056230 0.000000 
				CHANNELS 3 Zrotation Yrotation Xrotation
				JOINT RightToeBase
				{
					OFFSET -0.164730 -0.452590 2.363150 
					CHANNELS 3 Zrotation Yrotation Xrotation
					End Site
					{
						OFFSET 0.000000 0.000000 0.000000 
					}
				}
			}
		}
	}
	JOINT Spine
	{
		OFFSET 0.028270 2.035590 -0.193380 
		CHANNELS 3 Zrotation Yrotation Xrotation
		JOINT Spine1
		{
			OFFSET 0.056720 2.048850 -0.042750 
			CHANNELS 3 Zrotation Yrotation Xrotation
			JOINT Neck1
			{
				OFFSET -0.054170 1.746240 0.172020 
				CHANNELS 3 Zrotation Yrotation Xrotation
				JOINT Head
				{
					OFFSET 0.104070 1.761360 -0.123970 
					CHANNELS 3 Zrotation Yrotation Xrotation
					End Site
					{
						OFFSET 0.000000 0.000000 0.000000 
					}
				}
			}
			JOINT LeftArm
			{
				OFFSET 3.362410 1.200890 -0.311210 
				CHANNELS 3 Zrotation Yrotation Xrotation
				JOINT LeftForeArm
				{
					OFFSET 4.983000 -0.000000 -0.000000 
					CHANNELS 3 Zrotation Yrotation Xrotation
					JOINT LeftHand
					{
						OFFSET 3.483560 -0.000000 -0.000000 
						CHANNELS 3 Zrotation Yrotation Xrotation
						JOINT LeftHandIndex1
						{
							OFFSET 0.715260 -0.000000 -0.000000 
							CHANNELS 3 Zrotation Yrotation Xrotation
							End Site
							{
								OFFSET 0.000000 0.000000 0.000000 
							}
						}
					}
				}
			}
			JOINT RightArm
			{
				OFFSET -3.136600 1.374050 -0.404650 
				CHANNELS 3 Zrotation Yrotation Xrotation
				JOINT RightForeArm
				{
					OFFSET -5.241900 -0.000000 -0.000000 
					CHANNELS 3 Zrotation Yrotation Xrotation
					JOINT RightHand
					{
						OFFSET -3.444170 -0.000000 -0.000000 
						CHANNELS 3 Zrotation Yrotation Xrotation
						JOINT RightHandIndex1
						{
							OFFSET -0.622530 -0.000000 -0.000000 
							CHANNELS 3 Zrotation Yrotation Xrotation
							End Site
							{
								OFFSET 0.000000 0.000000 0.000000 
							}
						}
					}
				}
			}
		}
	}
}
MOTION
Frames: 15
Frame Time: 0.041667
29.877203 17.408578 4.318153 -122.406590 -82.881690 130.282213 -33.398169 -33.430110 11.666064 -11.265024 0.342116 0.876531 8.671758 -27.738077 -47.815346 8.655700 -16.580900 -54.891500 49.281743 24.033217 10.200550 14.760635 3.470176 -6.345024 -0.595866 -24.190746 -24.158686 -3.544800 11.528700 -34.084500 0.626509 2.007310 -4.172832 -1.875615 0.379864 -13.086308 2.319731 -18.694788 15.576564 -1.492200 -8.720700 13.286600 -86.375135 12.717202 16.269503 18.021182 -30.526925 -5.792416 -0.369947 2.613500 4.360086 -7.125000 0.000000 0.000000 79.127451 -9.025281 44.842810 -23.410401 38.336484 -6.702044 0.544769 -3.112198 -14.755935 7.125000 0.000000 0.000000 
29.857096 17.408035 4.302175 -121.329817 -82.762283 129.244843 -33.223748 -33.427957 11.752259 -11.236104 0.303418 0.859808 8.515156 -28.034273 -47.068752 8.375500 -16.388600 -53.904300 49.511053 24.012847 10.245032 14.777276 3.481273 -6.385234 -0.646254 -24.072088 -24.510686 -3.446300 11.384600 -33.588300 0.638624 1.987991 -4.169987 -1.923871 0.357709 -13.032131 2.422904 -18.639523 15.400310 -1.407000 -8.711200 13.146400 -86.378904 12.677923 16.485652 18.326370 -30.754779 -5.799491 -0.439660 2.579889 4.265779 -7.125000 0.000000 0.000000 79.232008 -9.149487 44.606223 -23.107663 38.080194 -6.584523 0.531085 -3.119898 -14.620354 7.125000 0.000000 0.000000 
29.835249 17.404557 4.287503 -120.910532 -82.694527 128.838893 -33.249285 -33.533646 11.935911 -11.199799 0.270068 0.879614 8.280482 -28.610811 -46.097515 7.947000 -16.080200 -52.371700 49.660571 24.000811 10.303814 14.791723 3.471181 -6.361487 -0.691284 -23.938368 -24.891128 -3.327900 11.207800 -32.984100 0.645654 1.993081 -4.179704 -1.956527 0.352712 -13.030098 2.459267 -18.667427 15.299394 -1.382500 -8.729500 13.058500 -86.354464 12.733326 16.888929 18.721515 -31.143793 -5.935237 -0.445544 2.569926 3.930353 -7.125000 0.000000 0.000000 79.282219 -9.366462 44.472956 -22.850354 37.846560 -6.482315 0.521696 -3.124972 -14.524565 7.125000 0.000000 0.000000 
29.811664 17.400318 4.272504 -122.072849 -82.695648 130.042320 -33.401487 -33.686514 12.096331 -11.164816 0.249003 0.900581 8.043923 -29.336084 -45.250251 7.464800 -15.711100 -50.611100 49.642100 24.113139 10.282815 14.795307 3.411178 -6.236565 -0.711703 -23.826436 -25.163422 -3.156100 10.943500 -32.089700 0.643145 2.031556 -4.191222 -1.935640 0.381660 -12.999272 2.462751 -18.641694 15.390349 -1.386200 -8.709500 13.122100 -86.292082 12.746673 17.372505 19.153466 -31.593755 -6.119291 -0.462534 2.568681 3.439696 -7.125000 0.000000 0.000000 79.341693 -9.570107 44.348574 -22.660086 37.677297 -6.414565 0.518342 -3.135300 -14.513530 7.125000 0.000000 0.000000 
29.788514 17.396623 4.257288 -122.580256 -82.669594 130.582973 -33.478774 -33.783292 12.253363 -11.134949 0.211780 0.897003 7.818279 -29.933357 -44.423469 7.003500 -15.334900 -48.887700 49.698397 24.174444 10.298649 14.802198 3.373432 -6.156688 -0.749315 -23.675213 -25.499291 -3.000200 10.695300 -31.259100 0.643447 2.047341 -4.198056 -1.942462 0.391652 -12.973117 2.523857 -18.609804 15.368400 -1.344000 -8.695600 13.105400 -86.236068 12.757253 17.794857 19.553231 -32.005662 -6.292138 -0.472629 2.566309 3.036128 -7.125000 0.000000 0.000000 79.414409 -9.749263 44.181896 -22.439630 37.481652 -6.331006 0.511462 -3.141993 -14.456185 7.125000 0.000000 0.000000 
29.764168 17.392818 4.242180 -123.374105 -82.665867 131.411361 -33.592343 -33.863998 12.416073 -11.110771 0.164822 0.876716 7.581089 -30.523215 -43.605834 6.511300 -14.906100 -47.000800 49.720727 24.247161 10.315723 14.806087 3.330645 -6.061017 -0.787254 -23.505754 -25.842379 -2.831800 10.417700 -30.340200 0.639065 2.060148 -4.204720 -1.954151 0.401239 -12.950156 2.597248 -18.568611 15.344646 -1.293800 -8.677000 13.090200 -86.163677 12.769774 18.233876 19.964225 -32.436569 -6.487966 -0.474805 2.566340 2.607664 -7.125000 0.000000 0.000000 79.494240 -9.920317 44.013807 -22.235803 37.300700 -6.252920 0.503688 -3.146990 -14.393395 7.125000 0.000000 0.000000 
29.738518 17.389340 4.226855 -124.298759 -82.673276 132.374322 -33.713227 -33.918911 12.575860 -11.091320 0.105243 0.833121 7.331202 -31.096512 -42.779692 5.997200 -14.425700 -44.970600 49.727285 24.326066 10.334821 14.807915 3.288379 -5.963597 -0.825262 -23.329117 -26.174286 -2.663300 10.128900 -29.395000 0.631157 2.066532 -4.211833 -1.976898 0.406505 -12.930859 2.675370 -18.521460 15.310438 -1.240800 -8.655700 13.067400 -86.081947 12.783398 18.684951 20.388397 -32.861780 -6.673844 -0.478572 2.560393 2.181769 -7.125000 0.000000 0.000000 79.580141 -10.085306 43.844373 -22.051933 37.138136 -6.181944 0.493374 -3.149928 -14.304985 7.125000 0.000000 0.000000 
29.711672 17.386297 4.211204 -125.166085 -82.683462 133.289616 -33.850894 -33.962880 12.729520 -10.969284 -0.002608 0.743387 6.509548 -34.177414 -40.448517 6.014900 -14.442800 -45.041700 49.739912 24.405763 10.353788 14.809369 3.247294 -5.870265 -0.868728 -23.139171 -26.540606 -2.485600 9.811600 -28.368900 0.622576 2.065431 -4.221211 -2.012291 0.404747 -12.920048 2.744826 -18.475295 15.260586 -1.194800 -8.635100 13.028600 -85.994948 12.801592 19.148432 20.827619 -33.268430 -6.829622 -0.504601 2.545148 1.776725 -7.125000 0.000000 0.000000 79.668246 -10.251117 43.672774 -21.889435 36.993796 -6.117951 0.482012 -3.150574 -14.183033 7.125000 0.000000 0.000000 
29.683413 17.383363 4.194901 -125.923961 -82.682977 134.107540 -33.959119 -33.990341 12.860409 -10.872646 -0.114303 0.658700 5.638406 -36.653509 -38.094510 5.908300 -14.338900 -44.612500 49.762296 24.490564 10.358693 14.811267 3.200690 -5.771712 -0.919352 -22.936333 -26.960037 -2.306100 9.476400 -27.297300 0.614343 2.061586 -4.233107 -2.059711 0.398828 -12.916089 2.798552 -18.425730 15.205037 -1.160400 -8.612700 12.978900 -85.901959 12.813741 19.581803 21.239551 -33.651472 -6.986535 -0.517233 2.532231 1.382816 -7.125000 0.000000 0.000000 79.757726 -10.413497 43.498495 -21.744573 36.865130 -6.060752 0.470970 -3.150302 -14.025862 7.125000 0.000000 0.000000 
29.653524 17.380537 4.178054 -126.544543 -82.671352 134.796021 -34.038182 -34.001913 12.973173 -10.795159 -0.217343 0.593870 4.767595 -38.636027 -35.785979 5.695600 -14.126700 -43.747400 49.792777 24.575140 10.349951 14.813985 3.144806 -5.659243 -0.979175 -22.711863 -27.440693 -2.130200 9.132100 -26.209400 0.607211 2.055308 -4.245979 -2.114186 0.389190 -12.910280 2.837411 -18.359055 15.168501 -1.135900 -8.581200 12.936900 -85.811159 12.814859 19.981548 21.626964 -33.986604 -7.107351 -0.536050 2.513675 1.042420 -7.125000 0.000000 0.000000 79.848280 -10.570222 43.322121 -21.624249 36.760579 -6.014577 0.461863 -3.150791 -13.854613 7.125000 0.000000 0.000000 
29.621026 17.378146 4.160447 -126.967641 -82.651247 135.276432 -34.097781 -33.994541 13.083082 -10.731515 -0.302957 0.567330 3.918741 -40.251150 -33.541853 5.408600 -13.829700 -42.559500 49.834044 24.642029 10.338240 14.818373 3.075457 -5.518558 -1.052564 -22.444336 -27.985194 -1.956700 8.775400 -25.095200 0.601823 2.042934 -4.255493 -2.173773 0.374692 -12.890285 2.872515 -18.260205 15.163368 -1.112100 -8.533400 12.913300 -85.722787 12.796887 20.352849 21.976812 -34.270846 -7.195381 -0.561882 2.491222 0.713198 -7.125000 0.000000 0.000000 79.943215 -10.712189 43.135607 -21.529504 36.683808 -5.981281 0.455062 -3.153051 -13.692343 7.125000 0.000000 0.000000 
29.585268 17.376298 4.141970 -127.255792 -82.621293 135.603324 -34.143235 -33.948034 13.199733 -10.678149 -0.374974 0.578388 3.072290 -41.627572 -31.291812 5.083300 -13.477000 -41.181200 49.890883 24.689385 10.332840 14.825013 2.985584 -5.330159 -1.146589 -22.101161 -28.611843 -1.774100 8.378900 -23.870900 0.598258 2.023933 -4.258734 -2.236790 0.355535 -12.845164 2.915969 -18.113629 15.208156 -1.080500 -8.460800 12.924900 -85.632350 12.764959 20.697908 22.282483 -34.512024 -7.264818 -0.587095 2.468320 0.359734 -7.125000 0.000000 0.000000 80.044813 -10.829693 42.939341 -21.455880 36.631811 -5.959085 0.448878 -3.157051 -13.544369 7.125000 0.000000 0.000000 
29.545489 17.374776 4.122189 -127.592896 -82.579908 135.955484 -34.173896 -33.827415 13.313812 -10.634351 -0.439592 0.620870 2.185237 -42.848163 -28.902623 4.733500 -13.077200 -39.658100 49.962952 24.731082 10.338780 14.833202 2.869014 -5.077857 -1.265928 -21.657246 -29.320997 -1.576100 7.920800 -22.473900 0.595182 1.999154 -4.256429 -2.304467 0.332436 -12.773588 2.971959 -17.906669 15.322846 -1.039800 -8.355500 12.987500 -85.529142 12.739173 20.999636 22.545937 -34.714950 -7.322668 -0.602842 2.446301 0.012424 -7.125000 0.000000 0.000000 80.159623 -10.923196 42.731290 -21.405841 36.606735 -5.947581 0.442829 -3.161795 -13.418378 7.125000 0.000000 0.000000 
29.501579 17.373363 4.100995 -128.169372 -82.532619 136.529349 -34.187201 -33.587104 13.384135 -10.601912 -0.493795 0.703463 1.211228 -43.929464 -26.209601 4.351100 -12.613500 -37.938400 50.030913 24.784143 10.346921 14.840057 2.720396 -4.750475 -1.408566 -21.109138 -30.083506 -1.365600 7.396200 -20.894700 0.590207 1.968618 -4.250073 -2.383956 0.305224 -12.676896 3.034480 -17.629962 15.518651 -0.995800 -8.211300 13.107400 -85.403148 12.733771 21.239716 22.776373 -34.891684 -7.377981 -0.618336 2.425821 -0.293477 -7.125000 0.000000 0.000000 80.294633 -10.991091 42.511086 -21.378221 36.607234 -5.944876 0.437544 -3.166781 -13.314876 7.125000 0.000000 0.000000 
29.454083 17.372059 4.078931 -129.096250 -82.483492 137.442402 -34.176104 -33.188236 13.366599 -10.584189 -0.531843 0.833164 0.136906 -44.831941 -23.111608 3.931300 -12.068400 -35.974400 50.080561 24.862209 10.350301 14.843448 2.541643 -4.353405 -1.564652 -20.483969 -30.831130 -1.163100 6.846300 -19.260900 0.582599 1.935402 -4.241738 -2.474078 0.275755 -12.558885 3.091003 -17.280136 15.804321 -0.958400 -8.025800 13.289900 -85.260235 12.751749 21.417713 22.969866 -35.040590 -7.431626 -0.621438 2.408929 -0.496233 -7.125000 0.000000 0.000000 80.442012 -11.042536 42.297242 -21.386257 36.642780 -5.954665 0.435834 -3.171618 -13.228858 7.125000 0.000000 0.000000 
